<svg width="50" height="50" fill="none" xmlns="http://www.w3.org/2000/svg"><g clip-path="url(#Layer_1__a)" fill="#7F1B83"><path d="M12.6 0c.633.133 1.563.939 1.563 1.607v2.29h8.788v-2.29c0-.667.93-1.474 1.563-1.607h.78c.633.133 1.563.939 1.563 1.607v2.29h8.886v-2.29c0-.667.93-1.474 1.562-1.607h.781c.632.133 1.563.939 1.563 1.607v2.29h3.368c1.41 0 3.71 1.285 4.702 2.273 1.257 1.253 1.97 2.914 2.28 4.642v12.37c-.623 2.212-3.702 2.052-3.91-.337-.313-3.607.295-7.682.007-11.307-.135-1.7-1.633-3.747-3.47-3.747h-2.978v2.289c0 .873-1.174 1.63-2.001 1.614-.828-.015-1.905-.787-1.905-1.614V7.791h-8.886v2.289c0 .873-1.173 1.63-2 1.614-.829-.015-1.906-.787-1.906-1.614V7.791h-8.788v2.289c0 .873-1.173 1.63-2 1.614-.828-.015-1.905-.787-1.905-1.614V7.791h-2.88c-1.652 0-3.457 2.019-3.465 3.654l-.005 30.783c.157 1.988 1.52 3.453 3.498 3.72l15.497.028c2.375.24 2.407 3.553.088 3.884-5.131-.278-10.728.41-15.807.01-3.785-.298-6.901-3.49-7.182-7.25l.016-31.65c.077-3.224 3.721-7.075 6.969-7.075h3.27V1.607c0-.667.931-1.474 1.563-1.607h.782Z"/><path d="M50 39.061c-.858 8.46-9.983 13.52-17.579 9.305-8.528-4.731-7.849-17.294 1.109-21.108 7.351-3.13 15.816 1.897 16.47 9.856v1.948Zm-12.616-8.836c-5.9.573-9.05 7.309-5.782 12.236 3.115 4.695 10.134 4.665 13.204-.058 3.62-5.57-.84-12.818-7.423-12.178ZM11.893 18.533c2.749-.365 3.037 3.628.55 3.861-2.638.247-2.931-3.545-.55-3.86Zm8.496 0c2.748-.365 3.037 3.628.549 3.861-2.637.247-2.93-3.545-.55-3.86Zm8.495 0c2.748-.365 3.037 3.628.55 3.861-2.638.247-2.931-3.545-.55-3.86Zm8.496 0c2.748-.365 3.037 3.628.548 3.861-2.636.247-2.93-3.545-.548-3.86Zm-25.487 8.475c2.749-.365 3.037 3.627.55 3.86-2.638.248-2.931-3.544-.55-3.86Zm8.496 0c2.748-.365 3.037 3.627.549 3.86-2.637.248-2.93-3.544-.55-3.86Zm-8.496 8.474c2.749-.365 3.037 3.628.55 3.861-2.638.247-2.931-3.545-.55-3.86Zm8.496 0c2.748-.365 3.037 3.628.549 3.861-2.637.247-2.93-3.545-.55-3.86Z"/><path d="M40.137 36.139c.334.022.694-.035 1.024 0 2.41.258 2.366 3.611.088 3.884-.715.086-3.245.095-3.845-.136-.682-.264-1.1-.952-1.172-1.656-.107-1.047-.085-3.029-.005-4.095.202-2.69 3.627-2.537 3.899-.277.087.721-.041 1.545.01 2.279v.001Z"/></g><defs><clipPath id="Layer_1__a"><path fill="#fff" d="M0 0h50v50H0z"/></clipPath></defs></svg>