<svg width="292" height="12" fill="none" xmlns="http://www.w3.org/2000/svg"><g clip-path="url(#Isolation_Mode__a)"><path d="m288.944 3.528-.941 1.021c-.184.199-.373.409-.567.627-1.075 1.201-2.291 2.562-3.411 2.576h-.019c-1.112 0-2.335-1.364-3.414-2.569a52.142 52.142 0 0 0-.544-.6c-.165-.18-.335-.37-.509-.565l-.022-.025c-1.49-1.67-3.531-3.955-6.488-3.993h-.044c-2.983 0-5.118 2.381-6.535 3.96-.171.192-.336.377-.501.555-.174.19-.354.39-.538.596l-.04.044c-1.08 1.21-2.305 2.583-3.418 2.597h-.006c-1.135 0-2.465-1.484-3.435-2.566-.186-.207-.367-.41-.546-.603a48.074 48.074 0 0 1-.53-.588c-1.49-1.67-3.532-3.955-6.489-3.994h-.043c-2.985 0-5.12 2.382-6.535 3.961-.172.191-.34.378-.501.553-.188.205-.381.42-.578.642-1.081 1.21-2.305 2.582-3.43 2.595h-.019c-1.113 0-2.334-1.364-3.417-2.573a43.605 43.605 0 0 0-.54-.596c-.165-.18-.335-.37-.509-.565l-.021-.025c-1.49-1.67-3.532-3.955-6.489-3.993h-.043c-2.985 0-5.12 2.381-6.538 3.964-.17.19-.335.375-.499.551-.187.203-.379.418-.577.64-1.081 1.21-2.305 2.583-3.417 2.596h-.006c-1.136 0-2.465-1.484-3.437-2.568a59.67 59.67 0 0 0-.544-.602c-.154-.166-.31-.34-.47-.52l-.061-.068c-1.489-1.67-3.531-3.955-6.49-3.993h-.043c-2.985 0-5.12 2.381-6.535 3.96a38.95 38.95 0 0 1-.501.555c-.187.203-.38.42-.578.64-1.081 1.21-2.305 2.583-3.43 2.596h-.019c-1.112 0-2.333-1.365-3.414-2.57-.186-.207-.365-.408-.544-.601a47.828 47.828 0 0 1-.531-.588c-1.489-1.67-3.531-3.955-6.488-3.993h-.044c-2.986 0-5.119 2.38-6.535 3.96-.171.193-.339.378-.5.555-.188.204-.381.419-.579.641-1.08 1.21-2.304 2.583-3.418 2.596h-.006c-1.135 0-2.412-1.424-3.437-2.568-.185-.207-.367-.41-.544-.602-.172-.186-.349-.385-.53-.588-1.491-1.67-3.532-3.955-6.49-3.994h-.044c-2.985 0-5.119 2.38-6.535 3.96-.17.192-.336.377-.502.555-.187.203-.378.417-.577.64-1.08 1.21-2.304 2.582-3.43 2.595h-.019c-1.112 0-2.335-1.364-3.414-2.569a52.178 52.178 0 0 0-.543-.6c-.166-.18-.336-.37-.51-.565l-.021-.025C145.54 2.325 143.499.04 140.549 0h-.072c-2.965 0-5.014 2.287-6.514 3.96a76.83 76.83 0 0 1-.5.555c-.188.203-.38.42-.579.642-1.08 1.21-2.304 2.582-3.429 2.595h-.019c-1.113 0-2.335-1.364-3.414-2.569a74.554 74.554 0 0 0-.544-.602 34.746 34.746 0 0 1-.511-.564l-.02-.022C123.459 2.325 121.419.04 118.46 0h-.045c-2.983 0-5.034 2.287-6.533 3.96-.172.192-.338.379-.501.555-.188.203-.38.42-.578.642-1.081 1.21-2.305 2.58-3.419 2.595h-.006c-1.135 0-2.465-1.484-3.437-2.568-.185-.208-.367-.41-.544-.601a58.401 58.401 0 0 1-.514-.57l-.016-.018C101.377 2.325 99.337.04 96.385 0h-.072C93.35 0 91.299 2.287 89.8 3.96a37.77 37.77 0 0 1-.502.555c-.187.203-.38.418-.577.64-1.08 1.21-2.305 2.583-3.43 2.596h-.02c-1.112 0-2.334-1.365-3.413-2.57l-.012-.013c-.181-.203-.358-.4-.532-.587-.17-.183-.344-.378-.53-.588C79.294 2.325 77.253.04 74.295 0h-.045c-2.983 0-5.034 2.287-6.533 3.96a52.39 52.39 0 0 1-.502.557c-.177.19-.357.394-.544.601l-.033.037c-1.08 1.21-2.306 2.583-3.419 2.597h-.005c-1.136 0-2.466-1.484-3.438-2.568-.185-.207-.367-.41-.545-.603a39.811 39.811 0 0 1-.53-.588C57.212 2.325 55.171.04 52.215 0h-.045c-2.985 0-5.034 2.287-6.534 3.96-.17.192-.34.379-.5.555-.189.203-.38.42-.579.64-1.08 1.21-2.304 2.583-3.43 2.596h-.019c-1.112 0-2.334-1.365-3.418-2.574a48.769 48.769 0 0 0-.54-.596 44.21 44.21 0 0 1-.514-.57l-.016-.018C35.13 2.325 33.09.04 30.134 0h-.045c-2.985 0-5.034 2.287-6.537 3.964-.17.19-.336.375-.498.551-.188.203-.379.418-.578.64-1.08 1.21-2.304 2.583-3.416 2.596h-.006c-1.136 0-2.412-1.424-3.437-2.568-.186-.209-.367-.41-.544-.602a37.755 37.755 0 0 1-.476-.526l-.055-.062C13.05 2.325 11.01.04 8.049 0h-.033c-3 0-5.055 2.297-6.557 3.975-.177.2-.35.392-.516.573L0 5.567l3.059 2.905.94-1.021c.178-.193.36-.396.546-.605l.018-.019c1.08-1.207 2.306-2.576 3.42-2.58h.021c1.124.014 2.35 1.386 3.431 2.598l.035.04c.186.207.366.407.541.598.163.177.33.364.502.555 1.497 1.672 3.547 3.96 6.512 3.96h.072c2.95-.038 4.99-2.323 6.48-3.993l.045-.051c.167-.187.33-.368.486-.538.177-.192.358-.393.545-.602 1.078-1.202 2.297-2.565 3.408-2.568h.022c1.124.015 2.348 1.386 3.428 2.595l1.021-.939-1.01.949c.196.219.384.43.571.632.148.16.3.331.455.505l.044.05c1.497 1.67 3.547 3.96 6.512 3.96h.072c2.95-.038 4.99-2.323 6.48-3.993l.045-.05.487-.54c.177-.19.358-.394.544-.6l.023-.027c1.068-1.192 2.279-2.542 3.397-2.542h.011c1.125.015 2.349 1.386 3.429 2.595l1.021-.939-1.01.949c.195.219.383.43.568.63.162.177.329.364.501.555 1.497 1.673 3.548 3.961 6.512 3.961h.073c2.95-.038 4.992-2.325 6.481-3.993l.046-.052c.166-.185.328-.366.486-.536.177-.192.358-.395.546-.602 1.077-1.202 2.297-2.565 3.408-2.568h.021c1.124.015 2.348 1.386 3.432 2.599.197.22.388.435.577.64.145.157.294.323.447.492l.053.06c1.497 1.673 3.548 3.961 6.512 3.961h.073c2.95-.038 4.99-2.323 6.48-3.993l.03-.032c.172-.193.34-.38.503-.557.177-.192.358-.395.547-.603 1.077-1.203 2.299-2.567 3.417-2.567h.011c1.124.015 2.348 1.386 3.43 2.597l.015.017c.193.216.38.425.562.623.159.172.319.352.486.537l.016.018c1.413 1.578 3.548 3.96 6.56 3.96h.026c2.95-.038 4.99-2.322 6.487-3.997.18-.202.355-.399.526-.584.177-.191.359-.394.544-.601.917-1.024 2.302-2.568 3.426-2.568h.004c1.124.014 2.348 1.385 3.43 2.597l.02.024c.19.213.376.42.559.617.145.158.293.322.444.491l.055.062c1.414 1.578 3.549 3.961 6.559 3.961h.026c2.95-.038 4.991-2.324 6.48-3.992l.045-.05c.167-.186.329-.367.487-.54.176-.19.354-.39.544-.601 1.026-1.144 2.3-2.568 3.42-2.568h.012c1.124.015 2.348 1.386 3.431 2.597.197.221.389.436.577.64.147.16.298.327.451.499l.05.054c1.409 1.575 3.541 3.954 6.565 3.961h.02c2.95-.038 4.991-2.324 6.482-3.993l.021-.025c.174-.196.344-.385.509-.563.177-.192.359-.395.544-.602.917-1.024 2.302-2.568 3.426-2.568h.004c1.124.015 2.35 1.387 3.431 2.597.198.221.391.437.578.639.162.176.329.363.501.554C168.577 9.71 170.628 12 173.592 12h.073c2.95-.038 4.99-2.324 6.48-3.993l.055-.062c.162-.182.322-.36.477-.528.177-.191.358-.394.545-.603 1.076-1.202 2.297-2.562 3.408-2.566h.022c1.124.014 2.348 1.385 3.431 2.598.198.221.389.436.578.64.148.16.297.327.451.499l.047.054c1.497 1.672 3.548 3.961 6.514 3.961h.072c2.95-.038 4.991-2.324 6.481-3.993l.044-.049c.167-.186.329-.367.489-.54.175-.19.354-.39.544-.601.916-1.024 2.301-2.568 3.425-2.568h.004c1.124.015 2.35 1.387 3.432 2.597l.036.042c.184.206.364.407.54.597.162.176.329.362.501.554 1.497 1.672 3.548 3.961 6.512 3.961h.073c2.949-.038 4.99-2.324 6.479-3.993l.056-.062c.162-.182.322-.36.477-.528.174-.188.351-.385.533-.59l.095-.106c1.089-1.216 2.214-2.473 3.334-2.473h.011c1.124.014 2.348 1.385 3.432 2.597.197.22.388.435.577.64.151.163.305.334.461.51l.039.043c1.497 1.672 3.548 3.96 6.512 3.96h.073c2.949-.038 4.99-2.323 6.481-3.993l.045-.05c.167-.186.329-.367.487-.54.177-.19.358-.394.548-.605 1.078-1.202 2.298-2.564 3.416-2.564h.011c1.124.015 2.348 1.386 3.43 2.597l.026.03c.189.21.372.416.55.609.162.176.329.362.502.554 1.497 1.673 3.547 3.961 6.512 3.961h.072c2.951-.038 4.992-2.325 6.481-3.993l.041-.046c.168-.188.331-.37.49-.542.176-.19.354-.39.544-.602 1.025-1.144 2.3-2.568 3.426-2.568h.005c1.124.015 2.348 1.386 3.432 2.597.197.221.388.436.577.64.148.16.297.327.451.499l.049.054c1.497 1.673 3.548 3.961 6.512 3.961h.073c2.942-.038 4.975-2.312 6.458-3.97l.046-.051c.164-.182.322-.359.477-.528l.94-1.02-3.056-2.903.013.003Z" fill="#F3B005"/></g><defs><clipPath id="Isolation_Mode__a"><path fill="#fff" d="M0 0h292v12H0z"/></clipPath></defs></svg>