<svg width="39" height="50" fill="none" xmlns="http://www.w3.org/2000/svg"><path d="M18.199.047c16.992-1.135 27.087 18.58 16.414 31.974-3.231 4.055-6.842 7.71-10.002 11.93-1.237 1.652-2.487 3.85-3.798 5.35-.816.932-1.877.933-2.693 0-1.179-1.349-2.34-3.374-3.446-4.872-3.15-4.264-6.25-7.67-9.685-11.624C-5.792 20.405 1.946 1.133 18.2.047Zm1.37 45.352c2.429-3.726 5.271-7.217 8.146-10.618 3.099-3.665 6.3-6.275 7.495-11.218C38.044 11.839 27.843 1.195 16.06 3.73 4.279 6.267-.476 19.423 6.16 28.924c1.136 1.625 2.62 2.92 3.917 4.4a124.185 124.185 0 0 1 9.278 12.01l.214.065Z" fill="#FB4947"/><path d="M18.614 11.705c6.69-.654 11.354 6.46 8.095 12.388-2.844 5.172-10.143 5.67-13.779 1.06-4.037-5.119-.76-12.818 5.684-13.448Zm.206 3.33c-6.889.832-4.856 11.75 2.05 9.759 5.792-1.672 4.03-10.494-2.05-9.76Z" fill="#FB4947"/></svg>